<?xml version="1.0" encoding="utf-8"?>
<!-- Generator: Adobe Illustrator 16.0.0, SVG Export Plug-In . SVG Version: 6.00 Build 0)  -->
<!DOCTYPE svg PUBLIC "-//W3C//DTD SVG 1.1//EN" "http://www.w3.org/Graphics/SVG/1.1/DTD/svg11.dtd">
<svg version="1.1" id="Capa_1" xmlns="http://www.w3.org/2000/svg" xmlns:xlink="http://www.w3.org/1999/xlink" x="0px" y="0px"
	 width="841.889px" height="595.281px" viewBox="0 0 841.889 595.281" enable-background="new 0 0 841.889 595.281"
	 xml:space="preserve">
<g>
	<linearGradient id="SVGID_1_" gradientUnits="userSpaceOnUse" x1="340.7234" y1="227.8328" x2="720.7234" y2="559.8328">
		<stop  offset="0" style="stop-color:#38A3D2"/>
		<stop  offset="0.073" style="stop-color:#3099C8"/>
		<stop  offset="0.2942" style="stop-color:#1B80AD"/>
		<stop  offset="0.5204" style="stop-color:#0C6E9A"/>
		<stop  offset="0.7526" style="stop-color:#03648F"/>
		<stop  offset="1" style="stop-color:#00608B"/>
	</linearGradient>
	<path fill="url(#SVGID_1_)" d="M709.724,69.112c-1.132-15.684-14.368-27.97-30.132-27.97H162.297c-15.764,0-29,12.286-30.132,27.97
		c-2.663,36.911-8.86,133.067-8.86,228.528v82.282c0,0.001,0,0.001,0,0.003l0,0l0,0c0,53.596,5.268,115.128,8.407,147.038
		c1.524,15.492,14.448,27.175,30.062,27.175h518.339c15.615,0,28.539-11.683,30.062-27.175c3.142-31.91,8.408-93.442,8.408-147.038
		l0,0l0,0c0-0.002,0-0.002,0-0.003V297.64C718.584,202.179,712.388,106.023,709.724,69.112z M430.587,370.283v-21.857h268.712
		v21.857H430.587z M142.59,370.283v-21.857h268.712v21.857H142.59z M151.402,70.501c0.413-5.742,5.099-10.072,10.896-10.072h517.296
		c5.798,0,10.481,4.33,10.896,10.072c2.648,36.701,8.81,132.306,8.81,227.14v31.5H430.587v-22.275
		c57.534-4.907,102.856-53.298,102.856-112.081c0-62.032-50.467-112.499-112.499-112.499s-112.499,50.467-112.499,112.499
		c0,58.783,45.322,107.174,102.856,112.081v22.275H142.59v-31.5C142.59,202.806,148.751,107.202,151.402,70.501z M420.945,287.998
		c-51.398,0-93.213-41.815-93.213-93.214s41.814-93.214,93.213-93.214s93.214,41.815,93.214,93.214S472.343,287.998,420.945,287.998
		z M680.115,534.852H161.775c-5.648,0-10.322-4.204-10.871-9.777c-2.917-29.652-7.692-85.137-8.258-135.507h556.596
		c-0.565,50.37-5.341,105.855-8.258,135.507C690.436,530.648,685.763,534.852,680.115,534.852z"/>
	<linearGradient id="SVGID_2_" gradientUnits="userSpaceOnUse" x1="285.2332" y1="291.3459" x2="665.2332" y2="623.3459">
		<stop  offset="0" style="stop-color:#38A3D2"/>
		<stop  offset="0.073" style="stop-color:#3099C8"/>
		<stop  offset="0.2942" style="stop-color:#1B80AD"/>
		<stop  offset="0.5204" style="stop-color:#0C6E9A"/>
		<stop  offset="0.7526" style="stop-color:#03648F"/>
		<stop  offset="1" style="stop-color:#00608B"/>
	</linearGradient>
	<path fill="url(#SVGID_2_)" d="M251.232,307.283c25.168,0,45.643-20.475,45.643-45.643s-20.475-45.643-45.643-45.643
		c-25.167,0-45.642,20.475-45.642,45.643S226.065,307.283,251.232,307.283z M251.232,235.284c14.534,0,26.357,11.823,26.357,26.356
		c0,14.534-11.823,26.357-26.357,26.357c-14.533,0-26.356-11.823-26.356-26.357C224.875,247.107,236.698,235.284,251.232,235.284z"
		/>
	<linearGradient id="SVGID_3_" gradientUnits="userSpaceOnUse" x1="432.1663" y1="123.1687" x2="812.1663" y2="455.1687">
		<stop  offset="0" style="stop-color:#38A3D2"/>
		<stop  offset="0.073" style="stop-color:#3099C8"/>
		<stop  offset="0.2942" style="stop-color:#1B80AD"/>
		<stop  offset="0.5204" style="stop-color:#0C6E9A"/>
		<stop  offset="0.7526" style="stop-color:#03648F"/>
		<stop  offset="1" style="stop-color:#00608B"/>
	</linearGradient>
	<path fill="url(#SVGID_3_)" d="M590.657,307.283c25.167,0,45.643-20.475,45.643-45.643s-20.476-45.643-45.643-45.643
		c-25.168,0-45.643,20.475-45.643,45.643S565.49,307.283,590.657,307.283z M590.657,235.284c14.533,0,26.356,11.823,26.356,26.356
		c0,14.534-11.823,26.357-26.356,26.357c-14.534,0-26.357-11.823-26.357-26.357C564.3,247.107,576.123,235.284,590.657,235.284z"/>
	<linearGradient id="SVGID_4_" gradientUnits="userSpaceOnUse" x1="391.8254" y1="169.3425" x2="771.8254" y2="501.3425">
		<stop  offset="0" style="stop-color:#38A3D2"/>
		<stop  offset="0.073" style="stop-color:#3099C8"/>
		<stop  offset="0.2942" style="stop-color:#1B80AD"/>
		<stop  offset="0.5204" style="stop-color:#0C6E9A"/>
		<stop  offset="0.7526" style="stop-color:#03648F"/>
		<stop  offset="1" style="stop-color:#00608B"/>
	</linearGradient>
	<path fill="url(#SVGID_4_)" d="M420.945,123.427c-39.346,0-71.356,32.01-71.356,71.356s32.011,71.356,71.356,71.356
		c39.347,0,71.356-32.01,71.356-71.356S460.291,123.427,420.945,123.427z M420.945,246.855c-28.712,0-52.07-23.359-52.07-52.071
		s23.358-52.071,52.07-52.071s52.071,23.359,52.071,52.071S449.656,246.855,420.945,246.855z"/>
	<linearGradient id="SVGID_5_" gradientUnits="userSpaceOnUse" x1="391.8254" y1="169.3425" x2="771.8254" y2="501.3425">
		<stop  offset="0" style="stop-color:#38A3D2"/>
		<stop  offset="0.073" style="stop-color:#3099C8"/>
		<stop  offset="0.2942" style="stop-color:#1B80AD"/>
		<stop  offset="0.5204" style="stop-color:#0C6E9A"/>
		<stop  offset="0.7526" style="stop-color:#03648F"/>
		<stop  offset="1" style="stop-color:#00608B"/>
	</linearGradient>
	<path fill="url(#SVGID_5_)" d="M420.945,176.141c-10.279,0-18.643,8.363-18.643,18.643s8.363,18.643,18.643,18.643
		s18.643-8.363,18.643-18.643S431.224,176.141,420.945,176.141z"/>
	<linearGradient id="SVGID_6_" gradientUnits="userSpaceOnUse" x1="509.5491" y1="34.5984" x2="889.5491" y2="366.5984">
		<stop  offset="0" style="stop-color:#38A3D2"/>
		<stop  offset="0.073" style="stop-color:#3099C8"/>
		<stop  offset="0.2942" style="stop-color:#1B80AD"/>
		<stop  offset="0.5204" style="stop-color:#0C6E9A"/>
		<stop  offset="0.7526" style="stop-color:#03648F"/>
		<stop  offset="1" style="stop-color:#00608B"/>
	</linearGradient>
	<path fill="url(#SVGID_6_)" d="M585.515,173.57h61.714c10.988,0,19.928-8.939,19.928-19.929v-51.428
		c0-10.989-8.939-19.929-19.928-19.929h-61.714c-10.989,0-19.929,8.939-19.929,19.929v51.428
		C565.586,164.631,574.526,173.57,585.515,173.57z M584.871,102.214c0-0.355,0.288-0.644,0.644-0.644h61.714
		c0.354,0,0.643,0.288,0.643,0.644v51.428c0,0.354-0.288,0.643-0.643,0.643h-61.714c-0.355,0-0.644-0.288-0.644-0.643V102.214z"/>
	<linearGradient id="SVGID_7_" gradientUnits="userSpaceOnUse" x1="259.322" y1="321.0027" x2="639.322" y2="653.0027">
		<stop  offset="0" style="stop-color:#38A3D2"/>
		<stop  offset="0.073" style="stop-color:#3099C8"/>
		<stop  offset="0.2942" style="stop-color:#1B80AD"/>
		<stop  offset="0.5204" style="stop-color:#0C6E9A"/>
		<stop  offset="0.7526" style="stop-color:#03648F"/>
		<stop  offset="1" style="stop-color:#00608B"/>
	</linearGradient>
	<path fill="url(#SVGID_7_)" d="M647.229,411.426H194.661c-10.989,0-19.929,8.939-19.929,19.928v61.714
		c0,10.989,8.939,19.929,19.929,19.929h452.567c10.988,0,19.928-8.939,19.928-19.929v-61.714
		C667.156,420.365,658.217,411.426,647.229,411.426z M647.871,493.067c0,0.354-0.288,0.643-0.643,0.643H194.661
		c-0.355,0-0.643-0.288-0.643-0.643v-61.714c0-0.354,0.287-0.643,0.643-0.643h452.567c0.354,0,0.643,0.288,0.643,0.643V493.067z"/>
	<linearGradient id="SVGID_8_" gradientUnits="userSpaceOnUse" x1="259.3225" y1="321.0027" x2="639.3225" y2="653.0027">
		<stop  offset="0" style="stop-color:#38A3D2"/>
		<stop  offset="0.073" style="stop-color:#3099C8"/>
		<stop  offset="0.2942" style="stop-color:#1B80AD"/>
		<stop  offset="0.5204" style="stop-color:#0C6E9A"/>
		<stop  offset="0.7526" style="stop-color:#03648F"/>
		<stop  offset="1" style="stop-color:#00608B"/>
	</linearGradient>
	<path fill="url(#SVGID_8_)" d="M616.371,452.567H225.518c-5.325,0-9.643,4.317-9.643,9.644c0,5.325,4.317,9.643,9.643,9.643
		h390.854c5.325,0,9.643-4.317,9.643-9.643C626.014,456.885,621.697,452.567,616.371,452.567z"/>
</g>
</svg>
