<?xml version="1.0" encoding="utf-8"?>
<!-- Generator: Adobe Illustrator 16.0.0, SVG Export Plug-In . SVG Version: 6.00 Build 0)  -->
<!DOCTYPE svg PUBLIC "-//W3C//DTD SVG 1.1//EN" "http://www.w3.org/Graphics/SVG/1.1/DTD/svg11.dtd">
<svg version="1.1" id="Capa_1" xmlns="http://www.w3.org/2000/svg" xmlns:xlink="http://www.w3.org/1999/xlink" x="0px" y="0px"
	 width="841.889px" height="595.281px" viewBox="0 0 841.889 595.281" enable-background="new 0 0 841.889 595.281"
	 xml:space="preserve">
<g>
	<linearGradient id="SVGID_1_" gradientUnits="userSpaceOnUse" x1="201.0129" y1="57.3562" x2="679.013" y2="579.3562">
		<stop  offset="0" style="stop-color:#8CC3EB"/>
		<stop  offset="1" style="stop-color:#0076AC"/>
	</linearGradient>
	<path fill="url(#SVGID_1_)" d="M708.299,81.642c0-22.332-18.168-40.5-40.5-40.5h-10.928V30.214
		c0-10.988-8.939-19.928-19.929-19.928H371.626C366.085,3.987,357.974,0,348.946,0h-41.143c-9.029,0-17.141,3.987-22.681,10.286
		h-28.747c-10.989,0-19.929,8.939-19.929,19.928v22.801c-11.944,4.035-20.571,15.339-20.571,28.628v185.784h-21.214
		c-10.989,0-19.929,8.939-19.929,19.928v41.143c0,10.989,8.939,19.929,19.929,19.929h21.214v31.5
		c0,16.66,13.554,30.214,30.214,30.214h165.213v11.571h-0.643c-7.492,0-14.024,4.159-17.428,10.285H243.945
		c-2.406-5.88-7.54-10.387-14.103-11.845l-72-15.999c-5.931-1.319-12.052,0.106-16.792,3.908s-7.46,9.468-7.46,15.544v97.783
		c0,6.077,2.72,11.742,7.459,15.545c3.582,2.874,7.953,4.39,12.434,4.39c1.449,0,2.909-0.158,4.358-0.48l71.999-16
		c6.564-1.459,11.698-5.964,14.104-11.845H393.23c3.403,6.126,9.937,10.286,17.428,10.286h0.644v11.57h-41.785
		c-16.66,0-30.215,13.555-30.215,30.215v20.571c0,5.325,4.317,9.643,9.644,9.643h215.997c5.326,0,9.643-4.317,9.643-9.643v-20.571
		c0-16.66-13.554-30.215-30.214-30.215h-41.783v-11.57h0.643c10.988,0,19.929-8.94,19.929-19.929v-0.645h21.214
		c16.66,0,30.214-13.554,30.214-30.214s-13.554-30.214-30.214-30.214h-21.214v-0.643c0-10.989-8.94-19.929-19.929-19.929h-0.643
		v-11.571h165.212c16.66,0,30.215-13.554,30.215-30.214v-86.212c6.391-7.163,10.285-16.599,10.285-26.931V81.642z M689.014,81.642
		v185.141c0,11.697-9.518,21.215-21.215,21.215H462.087c-11.697,0-21.214-9.518-21.214-21.215V81.642
		c0-11.697,9.517-21.214,21.214-21.214h205.712C679.496,60.428,689.014,69.945,689.014,81.642z M636.943,29.571
		c0.354,0,0.643,0.288,0.643,0.643v10.929H462.087c-10.332,0-19.768,3.895-26.931,10.286h-55.997V30.214
		c0-0.216-0.012-0.428-0.017-0.643H636.943z M307.803,19.286h41.143c6.026,0,10.929,4.902,10.929,10.928v21.215h-63V30.214
		C296.874,24.188,301.777,19.286,307.803,19.286z M256.375,29.571h21.23c-0.005,0.215-0.017,0.427-0.017,0.643v21.215h-21.857
		V30.214C255.732,29.859,256.02,29.571,256.375,29.571z M194.661,329.14c-0.355,0-0.643-0.288-0.643-0.644v-41.143
		c0-0.354,0.287-0.643,0.643-0.643h21.214v42.429H194.661z M245.447,451.282h145.284v42.428H245.447V451.282z M226.16,505.388
		c0,0.298-0.212,0.562-0.504,0.627l-71.999,15.999c-0.09,0.02-0.3,0.068-0.541-0.126c-0.24-0.192-0.24-0.408-0.24-0.501v-97.783
		c0-0.092,0-0.309,0.24-0.501c0.146-0.117,0.281-0.146,0.384-0.146c0.067,0,0.121,0.012,0.157,0.02l71.999,15.999
		c0.292,0.064,0.504,0.329,0.504,0.628V505.388z M555.301,565.066v10.929H358.588v-10.929c0-6.025,4.902-10.928,10.929-10.928
		h174.855C550.398,554.138,555.301,559.041,555.301,565.066z M483.301,534.852h-52.714v-11.571h52.714V534.852z M544.372,461.567
		c6.025,0,10.929,4.902,10.929,10.929s-4.903,10.929-10.929,10.929h-21.214v-21.857H544.372z M503.872,441.639v61.714
		c0,0.354-0.288,0.643-0.643,0.643h-92.57c-0.355,0-0.644-0.288-0.644-0.643v-61.714c0-0.355,0.288-0.644,0.644-0.644h92.57
		C503.584,440.996,503.872,441.284,503.872,441.639z M483.301,421.711h-52.714v-11.571h52.714V421.711z M667.799,390.854h-421.71
		c-6.026,0-10.929-4.902-10.929-10.929V81.642c0-6.026,4.902-10.929,10.929-10.929h177.009c-0.977,3.479-1.511,7.143-1.511,10.929
		v185.141c0,22.332,18.169,40.5,40.5,40.5h205.712c3.787,0,7.45-0.533,10.929-1.511v74.153
		C678.728,385.952,673.825,390.854,667.799,390.854z"/>
	<linearGradient id="SVGID_2_" gradientUnits="userSpaceOnUse" x1="340.7576" y1="-70.6096" x2="818.7576" y2="451.3904">
		<stop  offset="0" style="stop-color:#8CC3EB"/>
		<stop  offset="1" style="stop-color:#0076AC"/>
	</linearGradient>
	<path fill="url(#SVGID_2_)" d="M472.372,82.285c-5.325,0-9.643,4.317-9.643,9.643v164.57c0,5.325,4.317,9.643,9.643,9.643h185.142
		c5.325,0,9.643-4.317,9.643-9.643V91.927c0-5.325-4.317-9.643-9.643-9.643H472.372z M637.585,174.213
		c0,40.055-32.587,72.643-72.642,72.643s-72.643-32.588-72.643-72.643s32.588-72.643,72.643-72.643S637.585,134.158,637.585,174.213
		z M508.705,101.57c-11.264,8.74-20.462,20.022-26.689,32.998V101.57H508.705z M482.016,246.855v-32.998
		c6.228,12.976,15.426,24.258,26.689,32.998H482.016z M621.181,246.855c11.265-8.74,20.462-20.022,26.69-32.998v32.998H621.181z
		 M647.871,101.57v32.998c-6.229-12.976-15.426-24.258-26.69-32.998H647.871z"/>
	<linearGradient id="SVGID_3_" gradientUnits="userSpaceOnUse" x1="340.7581" y1="-70.6096" x2="818.7581" y2="451.3904">
		<stop  offset="0" style="stop-color:#8CC3EB"/>
		<stop  offset="1" style="stop-color:#0076AC"/>
	</linearGradient>
	<path fill="url(#SVGID_3_)" d="M564.944,224.998c28.002,0,50.785-22.782,50.785-50.785s-22.783-50.785-50.785-50.785
		c-28.003,0-50.785,22.782-50.785,50.785S536.941,224.998,564.944,224.998z M564.944,142.713c17.368,0,31.499,14.132,31.499,31.5
		s-14.131,31.5-31.499,31.5c-17.369,0-31.5-14.132-31.5-31.5S547.574,142.713,564.944,142.713z"/>
	<linearGradient id="SVGID_4_" gradientUnits="userSpaceOnUse" x1="340.7581" y1="-70.6096" x2="818.7581" y2="451.3904">
		<stop  offset="0" style="stop-color:#8CC3EB"/>
		<stop  offset="1" style="stop-color:#0076AC"/>
	</linearGradient>
	<path fill="url(#SVGID_4_)" d="M564.944,192.855c10.279,0,18.643-8.363,18.643-18.643s-8.363-18.643-18.643-18.643
		s-18.643,8.363-18.643,18.643S554.664,192.855,564.944,192.855z"/>
	<linearGradient id="SVGID_5_" gradientUnits="userSpaceOnUse" x1="212.0842" y1="47.218" x2="690.0843" y2="569.218">
		<stop  offset="0" style="stop-color:#8CC3EB"/>
		<stop  offset="1" style="stop-color:#0076AC"/>
	</linearGradient>
	<path fill="url(#SVGID_5_)" d="M359.231,113.142h-61.713c-10.989,0-19.929,8.939-19.929,19.928v82.285
		c0,10.989,8.939,19.929,19.929,19.929h61.713c10.989,0,19.929-8.939,19.929-19.929V133.07
		C379.159,122.082,370.22,113.142,359.231,113.142z M359.874,215.355c0,0.354-0.288,0.643-0.644,0.643h-61.713
		c-0.355,0-0.644-0.288-0.644-0.643V133.07c0-0.354,0.288-0.643,0.644-0.643h61.713c0.355,0,0.644,0.288,0.644,0.643V215.355z"/>
	<linearGradient id="SVGID_6_" gradientUnits="userSpaceOnUse" x1="145.4861" y1="108.2024" x2="623.4861" y2="630.2024">
		<stop  offset="0" style="stop-color:#8CC3EB"/>
		<stop  offset="1" style="stop-color:#0076AC"/>
	</linearGradient>
	<path fill="url(#SVGID_6_)" d="M328.374,257.14c-28.003,0-50.785,22.783-50.785,50.785c0,28.003,22.782,50.786,50.785,50.786
		s50.785-22.783,50.785-50.786C379.159,279.924,356.377,257.14,328.374,257.14z M328.374,339.426c-17.368,0-31.5-14.131-31.5-31.5
		c0-17.368,14.132-31.499,31.5-31.499s31.5,14.131,31.5,31.499C359.874,325.295,345.742,339.426,328.374,339.426z"/>
</g>
</svg>
