<?xml version="1.0" encoding="utf-8"?>
<!-- Generator: Adobe Illustrator 16.0.0, SVG Export Plug-In . SVG Version: 6.00 Build 0)  -->
<!DOCTYPE svg PUBLIC "-//W3C//DTD SVG 1.1//EN" "http://www.w3.org/Graphics/SVG/1.1/DTD/svg11.dtd">
<svg version="1.1" id="Capa_1" xmlns="http://www.w3.org/2000/svg" xmlns:xlink="http://www.w3.org/1999/xlink" x="0px" y="0px"
	 width="841.889px" height="595.281px" viewBox="0 0 841.889 595.281" enable-background="new 0 0 841.889 595.281"
	 xml:space="preserve">
<g>
	<linearGradient id="SVGID_1_" gradientUnits="userSpaceOnUse" x1="212.5974" y1="41.2166" x2="632.6401" y2="539.2672">
		<stop  offset="0" style="stop-color:#7B057E"/>
		<stop  offset="0.5659" style="stop-color:#3758B1"/>
		<stop  offset="0.9988" style="stop-color:#009ADA"/>
	</linearGradient>
	<path fill="url(#SVGID_1_)" d="M639.322,87.177C583.105,30.96,508.361,0,428.859,0c-79.504,0-154.248,30.96-210.463,87.178
		c-56.216,56.217-87.177,130.96-87.177,210.463s30.959,154.247,87.177,210.463c56.217,56.216,130.959,87.178,210.463,87.178
		c79.502,0,154.246-30.96,210.463-87.178c56.215-56.217,87.176-130.96,87.176-210.463S695.538,143.393,639.322,87.177z
		 M625.685,494.468c-52.574,52.573-122.477,81.527-196.826,81.527c-74.352,0-144.252-28.954-196.828-81.527
		c-52.572-52.575-81.527-122.477-81.527-196.827c0-74.352,28.955-144.252,81.527-196.827
		c52.576-52.573,122.477-81.527,196.828-81.527c74.35,0,144.252,28.954,196.826,81.527c52.574,52.575,81.527,122.476,81.527,196.827
		C707.212,371.991,678.259,441.892,625.685,494.468z"/>
	<linearGradient id="SVGID_2_" gradientUnits="userSpaceOnUse" x1="212.5979" y1="41.2175" x2="632.6399" y2="539.2673">
		<stop  offset="0" style="stop-color:#7B057E"/>
		<stop  offset="0.5659" style="stop-color:#3758B1"/>
		<stop  offset="0.9988" style="stop-color:#009ADA"/>
	</linearGradient>
	<path fill="url(#SVGID_2_)" d="M428.859,82.285c-118.746,0-215.355,96.607-215.355,215.355
		c0,118.747,96.609,215.355,215.355,215.355s215.355-96.608,215.355-215.355C644.214,178.892,547.605,82.285,428.859,82.285z
		 M428.859,493.71c-108.113,0-196.07-87.956-196.07-196.069s87.957-196.07,196.07-196.07s196.068,87.957,196.068,196.07
		S536.972,493.71,428.859,493.71z"/>
	<linearGradient id="SVGID_3_" gradientUnits="userSpaceOnUse" x1="212.5979" y1="41.2175" x2="632.6388" y2="539.2661">
		<stop  offset="0" style="stop-color:#7B057E"/>
		<stop  offset="0.5659" style="stop-color:#3758B1"/>
		<stop  offset="0.9988" style="stop-color:#009ADA"/>
	</linearGradient>
	<path fill="url(#SVGID_3_)" d="M428.859,113.142c-101.732,0-184.498,82.766-184.498,184.498s82.766,184.498,184.498,184.498
		s184.498-82.766,184.498-184.498S530.591,113.142,428.859,113.142z M428.859,462.853c-91.1,0-165.213-74.114-165.213-165.213
		s74.113-165.213,165.213-165.213c91.098,0,165.213,74.114,165.213,165.213S519.956,462.853,428.859,462.853z"/>
	<linearGradient id="SVGID_4_" gradientUnits="userSpaceOnUse" x1="212.5969" y1="41.2166" x2="632.6389" y2="539.2664">
		<stop  offset="0" style="stop-color:#7B057E"/>
		<stop  offset="0.5659" style="stop-color:#3758B1"/>
		<stop  offset="0.9988" style="stop-color:#009ADA"/>
	</linearGradient>
	<path fill="url(#SVGID_4_)" d="M428.859,143.999c-84.719,0-153.643,68.923-153.643,153.642s68.924,153.642,153.643,153.642
		s153.641-68.923,153.641-153.642S513.577,143.999,428.859,143.999z M561.56,318.691h-96.709l83.131-83.131
		c9.723,18.579,15.232,39.697,15.232,62.08C563.214,304.801,562.644,311.831,561.56,318.691z M420.138,276.59h17.439l12.33,12.331
		v17.438l-12.33,12.331h-17.439l-12.33-12.331v-17.438L420.138,276.59z M537.532,218.735l-68.338,68.338v-117.6
		C496.917,178.218,520.781,195.727,537.532,218.735z M449.909,164.937v96.71l-83.131-83.131c18.58-9.723,39.697-15.232,62.08-15.232
		C436.019,163.284,443.048,163.854,449.909,164.937z M349.954,188.967l68.338,68.339h-117.6
		C309.437,229.582,326.947,205.718,349.954,188.967z M296.156,276.59h96.709l-83.131,83.131c-9.723-18.58-15.23-39.697-15.23-62.08
		C294.503,290.48,295.072,283.45,296.156,276.59z M320.185,376.546l68.338-68.338v117.6
		C360.8,417.063,336.937,399.552,320.185,376.546z M407.808,430.343v-96.709l83.131,83.131c-18.58,9.723-39.697,15.231-62.08,15.231
		C421.698,431.996,414.667,431.427,407.808,430.343z M507.763,406.314l-68.34-68.339h117.602
		C548.281,365.699,530.771,389.563,507.763,406.314z"/>
	<linearGradient id="SVGID_5_" gradientUnits="userSpaceOnUse" x1="324.1169" y1="-52.8362" x2="744.1617" y2="445.217">
		<stop  offset="0" style="stop-color:#7B057E"/>
		<stop  offset="0.5659" style="stop-color:#3758B1"/>
		<stop  offset="0.9988" style="stop-color:#009ADA"/>
	</linearGradient>
	<path fill="url(#SVGID_5_)" d="M334.038,80.193c30.029-13.115,61.934-19.765,94.82-19.765s64.789,6.649,94.82,19.765
		c1.258,0.549,2.566,0.809,3.854,0.809c3.717,0,7.26-2.162,8.842-5.785c2.133-4.881-0.096-10.565-4.977-12.696
		c-32.48-14.186-66.98-21.378-102.539-21.378c-35.561,0-70.059,7.192-102.541,21.378c-4.879,2.131-7.107,7.815-4.977,12.696
		C323.474,80.096,329.156,82.328,334.038,80.193z"/>
	<linearGradient id="SVGID_6_" gradientUnits="userSpaceOnUse" x1="131.0627" y1="109.9822" x2="551.1047" y2="608.032">
		<stop  offset="0" style="stop-color:#7B057E"/>
		<stop  offset="0.5659" style="stop-color:#3758B1"/>
		<stop  offset="0.9988" style="stop-color:#009ADA"/>
	</linearGradient>
	<path fill="url(#SVGID_6_)" d="M523.679,515.088c-23.863,10.42-49.109,16.796-75.045,18.948c-5.307,0.44-9.252,5.1-8.811,10.406
		c0.416,5.036,4.633,8.846,9.598,8.846c0.268,0,0.537-0.011,0.809-0.033c28.051-2.327,55.361-9.222,81.17-20.494
		c4.881-2.132,7.107-7.815,4.977-12.696C534.245,515.185,528.564,512.957,523.679,515.088z"/>
	<linearGradient id="SVGID_7_" gradientUnits="userSpaceOnUse" x1="61.3767" y1="168.76" x2="481.4139" y2="666.8041">
		<stop  offset="0" style="stop-color:#7B057E"/>
		<stop  offset="0.5659" style="stop-color:#3758B1"/>
		<stop  offset="0.9988" style="stop-color:#009ADA"/>
	</linearGradient>
	<path fill="url(#SVGID_7_)" d="M409.081,534.036c-25.934-2.152-51.182-8.526-75.043-18.948c-4.881-2.131-10.566,0.098-12.697,4.979
		c-2.131,4.88,0.098,10.564,4.977,12.695c25.811,11.272,53.119,18.168,81.17,20.494c0.271,0.023,0.539,0.034,0.809,0.034
		c4.963,0,9.182-3.81,9.6-8.846C418.333,539.135,414.39,534.476,409.081,534.036z"/>
</g>
</svg>
