<?xml version="1.0" encoding="utf-8"?>
<!-- Generator: Adobe Illustrator 16.0.0, SVG Export Plug-In . SVG Version: 6.00 Build 0)  -->
<!DOCTYPE svg PUBLIC "-//W3C//DTD SVG 1.1//EN" "http://www.w3.org/Graphics/SVG/1.1/DTD/svg11.dtd">
<svg version="1.1" id="Capa_1" xmlns="http://www.w3.org/2000/svg" xmlns:xlink="http://www.w3.org/1999/xlink" x="0px" y="0px"
	 width="594.06px" height="248.998px" viewBox="0 0 594.06 248.998" enable-background="new 0 0 594.06 248.998"
	 xml:space="preserve">
<path fill="#4A7AB1" d="M91.915,118.561V233.85H46.704V118.561H18.826V91.054h27.127V54.505c0,0,4.892-27.127,35.41-27.127
	s46.342,0,46.342,0v26.756H91.536v36.92h36.169l-0.609,27.312L91.915,118.561z"/>
<rect x="155.583" y="27.386" fill="#009BDB" width="44.461" height="206.464"/>
<linearGradient id="SVGID_1_" gradientUnits="userSpaceOnUse" x1="227.5684" y1="162.2666" x2="272.3916" y2="162.2666">
	<stop  offset="0" style="stop-color:#8DC4EC"/>
	<stop  offset="1" style="stop-color:#ACD4F1"/>
</linearGradient>
<rect x="227.568" y="90.683" fill="url(#SVGID_1_)" width="44.823" height="143.167"/>
<linearGradient id="SVGID_2_" gradientUnits="userSpaceOnUse" x1="227.5684" y1="59.8887" x2="272.3916" y2="59.8887">
	<stop  offset="0" style="stop-color:#8DC4EC"/>
	<stop  offset="1" style="stop-color:#ACD4F1"/>
</linearGradient>
<rect x="227.568" y="42.369" fill="url(#SVGID_2_)" width="44.823" height="35.039"/>
<g>
	<rect x="298.468" y="20.224" fill="#009BDB" width="41.821" height="213.626"/>
	<polygon fill="#009BDB" points="389.837,84.659 435.048,84.659 389.837,149.828 452.612,233.85 399.771,233.85 336.342,149.078 	
		"/>
</g>
<g>
	<rect x="470.847" y="95.204" fill="#4A7AB1" width="45.211" height="135.819"/>
	<path fill="#4A7AB1" d="M570.878,95.204v24.291c0,0-59.154,4.707-59.154,37.866V113.8C511.724,113.8,536.59,95.204,570.878,95.204z
		"/>
</g>
</svg>
