<?xml version="1.0" encoding="utf-8"?>
<!-- Generator: Adobe Illustrator 16.0.0, SVG Export Plug-In . SVG Version: 6.00 Build 0)  -->
<!DOCTYPE svg PUBLIC "-//W3C//DTD SVG 1.1//EN" "http://www.w3.org/Graphics/SVG/1.1/DTD/svg11.dtd">
<svg version="1.1" id="Capa_1" xmlns="http://www.w3.org/2000/svg" xmlns:xlink="http://www.w3.org/1999/xlink" x="0px" y="0px"
	 width="571.473px" height="241.488px" viewBox="0 0 571.473 241.488" enable-background="new 0 0 571.473 241.488"
	 xml:space="preserve">
<linearGradient id="SVGID_1_" gradientUnits="userSpaceOnUse" x1="-1.4148" y1="87.988" x2="547.5852" y2="280.988" gradientTransform="matrix(1 0 0 -1 -0.0552 241.3472)">
	<stop  offset="0" style="stop-color:#7B057E"/>
	<stop  offset="0.5659" style="stop-color:#3758B1"/>
	<stop  offset="0.9988" style="stop-color:#009ADA"/>
</linearGradient>
<path fill="url(#SVGID_1_)" d="M83.594,114.578v115.289H38.382V114.578H10.505V87.07h27.127V50.521c0,0,4.894-27.127,35.41-27.127
	c30.518,0,46.342,0,46.342,0V50.15h-36.17v36.92h36.17l-0.608,27.312L83.594,114.578z"/>
<linearGradient id="SVGID_2_" gradientUnits="userSpaceOnUse" x1="9.0286" y1="58.281" x2="558.0286" y2="251.281" gradientTransform="matrix(1 0 0 -1 -0.0552 241.3472)">
	<stop  offset="0" style="stop-color:#7B057E"/>
	<stop  offset="0.5659" style="stop-color:#3758B1"/>
	<stop  offset="0.9988" style="stop-color:#009ADA"/>
</linearGradient>
<rect x="147.262" y="23.404" fill="url(#SVGID_2_)" width="44.461" height="206.463"/>
<linearGradient id="SVGID_3_" gradientUnits="userSpaceOnUse" x1="26.8689" y1="7.5339" x2="575.8689" y2="200.5339" gradientTransform="matrix(1 0 0 -1 -0.0552 241.3472)">
	<stop  offset="0" style="stop-color:#7B057E"/>
	<stop  offset="0.5659" style="stop-color:#3758B1"/>
	<stop  offset="0.9988" style="stop-color:#009ADA"/>
</linearGradient>
<rect x="219.247" y="86.701" fill="url(#SVGID_3_)" width="44.823" height="143.166"/>
<linearGradient id="SVGID_4_" gradientUnits="userSpaceOnUse" x1="-9.8538" y1="111.9939" x2="539.1462" y2="304.9939" gradientTransform="matrix(1 0 0 -1 -0.0552 241.3472)">
	<stop  offset="0" style="stop-color:#7B057E"/>
	<stop  offset="0.5659" style="stop-color:#3758B1"/>
	<stop  offset="0.9988" style="stop-color:#009ADA"/>
</linearGradient>
<rect x="219.247" y="23.395" fill="url(#SVGID_4_)" width="44.823" height="35.039"/>
<g>
	
		<linearGradient id="SVGID_5_" gradientUnits="userSpaceOnUse" x1="23.4792" y1="17.1755" x2="572.4792" y2="210.1755" gradientTransform="matrix(1 0 0 -1 -0.0552 241.3472)">
		<stop  offset="0" style="stop-color:#7B057E"/>
		<stop  offset="0.5659" style="stop-color:#3758B1"/>
		<stop  offset="0.9988" style="stop-color:#009ADA"/>
	</linearGradient>
	<rect x="290.146" y="16.242" fill="url(#SVGID_5_)" width="41.82" height="213.625"/>
	
		<linearGradient id="SVGID_6_" gradientUnits="userSpaceOnUse" x1="44.762" y1="-43.3645" x2="593.762" y2="149.6355" gradientTransform="matrix(1 0 0 -1 -0.0552 241.3472)">
		<stop  offset="0" style="stop-color:#7B057E"/>
		<stop  offset="0.5659" style="stop-color:#3758B1"/>
		<stop  offset="0.9988" style="stop-color:#009ADA"/>
	</linearGradient>
	<polygon fill="url(#SVGID_6_)" points="381.516,80.678 426.727,80.678 381.516,145.846 444.291,229.867 391.449,229.867 
		328.021,145.096 	"/>
	
		<linearGradient id="SVGID_7_" gradientUnits="userSpaceOnUse" x1="53.9138" y1="-69.3977" x2="602.9138" y2="123.6023" gradientTransform="matrix(1 0 0 -1 -0.0552 241.3472)">
		<stop  offset="0" style="stop-color:#7B057E"/>
		<stop  offset="0.5659" style="stop-color:#3758B1"/>
		<stop  offset="0.9988" style="stop-color:#009ADA"/>
	</linearGradient>
	<rect x="462.525" y="91.221" fill="url(#SVGID_7_)" width="45.211" height="135.819"/>
	
		<linearGradient id="SVGID_8_" gradientUnits="userSpaceOnUse" x1="46.7156" y1="-48.9211" x2="595.7156" y2="144.0788" gradientTransform="matrix(1 0 0 -1 -0.0552 241.3472)">
		<stop  offset="0" style="stop-color:#7B057E"/>
		<stop  offset="0.5659" style="stop-color:#3758B1"/>
		<stop  offset="0.9988" style="stop-color:#009ADA"/>
	</linearGradient>
	<path fill="url(#SVGID_8_)" d="M562.557,91.221v24.293c0,0-59.154,4.705-59.154,37.864v-43.562
		C503.402,109.816,528.269,91.221,562.557,91.221z"/>
</g>
</svg>
