<?xml version="1.0" encoding="utf-8"?>
<!-- Generator: Adobe Illustrator 16.0.0, SVG Export Plug-In . SVG Version: 6.00 Build 0)  -->
<!DOCTYPE svg PUBLIC "-//W3C//DTD SVG 1.1//EN" "http://www.w3.org/Graphics/SVG/1.1/DTD/svg11.dtd">
<svg version="1.1" id="Capa_1" xmlns="http://www.w3.org/2000/svg" xmlns:xlink="http://www.w3.org/1999/xlink" x="0px" y="0px"
	 width="606.06px" height="288.029px" viewBox="0 0 606.06 288.029" enable-background="new 0 0 606.06 288.029"
	 xml:space="preserve">
<g>
	<linearGradient id="SVGID_1_" gradientUnits="userSpaceOnUse" x1="-31.1978" y1="89.4209" x2="548.7977" y2="370.4189">
		<stop  offset="0" style="stop-color:#8DC4EC"/>
		<stop  offset="1" style="stop-color:#0076AD"/>
	</linearGradient>
	<path fill="url(#SVGID_1_)" d="M107.059,142.069v115.289H61.847V142.069H33.97v-27.507h27.127V78.013
		c0,0,4.893-27.127,35.41-27.127s46.342,0,46.342,0v26.756h-36.17v36.919h36.17l-0.609,27.313L107.059,142.069z"/>
	<linearGradient id="SVGID_2_" gradientUnits="userSpaceOnUse" x1="-13.978" y1="53.8691" x2="566.0267" y2="334.8716">
		<stop  offset="0" style="stop-color:#8DC4EC"/>
		<stop  offset="1" style="stop-color:#0076AD"/>
	</linearGradient>
	<rect x="170.727" y="50.895" fill="url(#SVGID_2_)" width="44.461" height="206.463"/>
	<linearGradient id="SVGID_3_" gradientUnits="userSpaceOnUse" x1="-12.6753" y1="51.1851" x2="567.3242" y2="332.1849">
		<stop  offset="0" style="stop-color:#8DC4EC"/>
		<stop  offset="1" style="stop-color:#0076AD"/>
	</linearGradient>
	<rect x="242.712" y="114.191" fill="url(#SVGID_3_)" width="44.823" height="143.167"/>
	<linearGradient id="SVGID_4_" gradientUnits="userSpaceOnUse" x1="33.3779" y1="-43.8716" x2="613.3787" y2="237.1289">
		<stop  offset="0" style="stop-color:#8DC4EC"/>
		<stop  offset="1" style="stop-color:#0076AD"/>
	</linearGradient>
	<rect x="242.712" y="50.886" fill="url(#SVGID_4_)" width="44.823" height="35.04"/>
	<g>
		<linearGradient id="SVGID_5_" gradientUnits="userSpaceOnUse" x1="11.9771" y1="-5.7227" x2="591.9775" y2="275.2777">
			<stop  offset="0" style="stop-color:#8DC4EC"/>
			<stop  offset="1" style="stop-color:#0076AD"/>
		</linearGradient>
		<rect x="313.612" y="43.732" fill="url(#SVGID_5_)" width="41.821" height="213.625"/>
		<linearGradient id="SVGID_6_" gradientUnits="userSpaceOnUse" x1="17.9712" y1="-18.0952" x2="597.9706" y2="262.9047">
			<stop  offset="0" style="stop-color:#8DC4EC"/>
			<stop  offset="1" style="stop-color:#0076AD"/>
		</linearGradient>
		<polygon fill="url(#SVGID_6_)" points="404.981,108.168 450.192,108.168 404.981,173.336 467.756,257.358 414.915,257.358 
			351.486,172.586 		"/>
		<linearGradient id="SVGID_7_" gradientUnits="userSpaceOnUse" x1="30.9136" y1="-44.8076" x2="610.9136" y2="236.1925">
			<stop  offset="0" style="stop-color:#8DC4EC"/>
			<stop  offset="1" style="stop-color:#0076AD"/>
		</linearGradient>
		<rect x="485.991" y="118.712" fill="url(#SVGID_7_)" width="45.211" height="135.82"/>
		<linearGradient id="SVGID_8_" gradientUnits="userSpaceOnUse" x1="54.4614" y1="-93.4121" x2="634.4637" y2="187.5891">
			<stop  offset="0" style="stop-color:#8DC4EC"/>
			<stop  offset="1" style="stop-color:#0076AD"/>
		</linearGradient>
		<path fill="url(#SVGID_8_)" d="M586.022,118.712v24.292c0,0-59.154,4.706-59.154,37.866v-43.562
			C526.868,137.308,551.734,118.712,586.022,118.712z"/>
	</g>
</g>
</svg>
